<svg enable-background="new 0 0 110 110" height="512" viewBox="0 0 110 110" width="512" xmlns="http://www.w3.org/2000/svg"><path d="m62.1523209 10.7633209c.5725937 0 33.9740448 5.7844582 37.6004868 36.8662758 3.6264496 31.0818214-13.551445 44.4424019-31.3019257 49.4049034s-34.6161652 4.9440231-52.2971344-19.0865479c-17.8887978-24.3130341 3.5422726-72.528862 42.0437431-67.1846313" fill="#dd584d"/><g fill="#a64139"><path d="m92.6739807 57.5540237c-1.2150192-2.4300308-.8100128-12.2847214-4.3198395-19.1691513s-4.0498047-6.7498703-5.6697464-8.3698921c-1.6199341-1.6200199-6.884758-6.884428-10.9345627-6.884428-2.5927658 0-5.0748291-.8855762-6.5252457-1.522583-.8566589-.3758392-1.8354492-.3214855-2.6394958.1570988l-.4741096.2823753c-.970005.5773487-1.5132179 1.6684113-1.3890953 2.7906265l.3634109 3.2871075c-3.2398796 6.344862-1.3499908 15.1197605.6749535 15.6593266 2.0249443.540226 3.9148293-6.8844299 3.9148293-6.8844299s-.2700272-5.3996315 1.3499069-5.9398594c1.6199417-.5402279 2.8349533 1.349577 4.0498886 2.8350391 1.2149353 1.4847984 3.2398758 4.5896187 5.0009232 7.2894325 1.7611313 2.6998177 3.2337494 5.2650719 3.908699 7.0196533.6749573 1.7552452 1.0799637 3.9148331.8099289 6.8956985-.2699509 2.9808655 1.4849625 7.5486107-.9449005 8.0888405-2.4299545.540226-8.9097061-6.4800873-10.9345703-6.7518578-2.0249405-.2717743-.2700272 3.1068077-.2700272 3.1068077s10.259613 9.5849037 12.4195328 10.9344826c2.1599121 1.3502426 4.5897827.8100128 5.1297607 0s7.6946869-10.3942527 6.4797592-12.8242874z"/><path d="m67.0044632 69.5570755s-1.9071426-4.2543793-4.5477943-5.1345978c-2.6406555-.8802185-3.6675758 4.5477905-1.3203278 5.1345978 2.3472481.5868149 6.4549294 7.041748 6.4549294 8.0686646 0 1.0269241-2.6406555 4.9878998-6.3082275 4.8412018-3.667572-.1467056-7.7752533-.4401093-10.5626106-.8802185s-4.841198-2.0538406-5.2813072-4.4010925c-.4401093-2.3472443 3.8142776-5.8082809 4.841198-5.9849014s3.9609795-7.851078 0-6.8745575c-3.9609795.9765244-8.50877 8.7517776-9.9757996 13.2995682s-2.2005463 7.3351517-.8802185 8.8021774c1.3203278 1.4670334 4.1076813 3.520874 7.3351479 3.0807648 3.2274628-.4401093 4.9878998.1211166 7.6285515.0605621 2.6406555-.0605621 6.3082275.2165222 7.7752571.004631 1.4670296-.2118988 4.1076813.5216141 5.428009-.6520081s5.7214127-2.3472443 6.3082275-4.8411942 0-5.9039078-.8802185-7.132988-6.0148164-7.3906097-6.0148164-7.3906097z"/><path d="m40.1220589 64.2403412s5.3830681-3.8538589 3.3248329-6.0704155c-2.0582314-2.2165565-3.0081825.2123718-6.8079948 3.0352058-3.7998123 2.8228378-5.3830681 2.6469879-6.4913464-.4315948-1.1082783-3.0785866-1.5832558-2.3324203-1.4249306-7.1386185.1583271-4.8061981-.4749756-4.3882484.9499531-8.1595459 1.4249306-3.7713013 1.741581-5.0959206 3.0081863-7.2834702 1.2666016-2.1875496 3.0081825-4.4041061 5.0664139-5.9873619 2.0582352-1.5832539 6.1687126-2.0115261 6.1687126-2.0115261s1.7475662 4.2280865 1.7475662 5.8113384c0 1.5832558 0 5.5188789.6333008 6.6384163s2.6915321 2.3636246 4.2747879 0-1.2666016-8.5383224-1.4249306-10.9132042c-.1583252-2.3748817-.4749756-9.0245533-3.3248329-9.8161812-2.8498611-.7916279-9.8161812.4749775-14.8825989 4.2747898s-9.3412056 11.0257587-11.5577621 19.287199 2.6915321 13.3278542 1.8999062 16.6526909c-.7916279 3.3248329.3166504 6.2709236 2.6915321 9.0726662 2.3748837 2.8017502 1.2666054 3.9100266 6.6496716 3.2767258s9.4995327-10.2371139 9.4995327-10.2371139z"/></g><g fill="#feda6f" opacity=".5"><path d="m66.4392471 24.2256413c-.4430466-.0732536-.9253998.6029758-1.0767059 1.5119286-.1513062.9089508.3966293 1.7462978.52845 1.7790413.1532974.0380783.9253311-.6029472 1.0769424-1.5113068.1513062-.9089509-.0851745-1.7051678-.5286865-1.7796631z"/><path d="m72.4604416 26.9269257c-.4102478-.1826191-1.047554.3501072-1.4232025 1.1915207-.3756485.8414116-.0565948 1.7898788.0627136 1.8548107.1387329.0755043 1.0474777-.3500977 1.4232712-1.1908607.3756485-.8414136.3476105-1.6715318-.0627823-1.8554707z"/><path d="m77.1743927 30.4451981c-.32621-.3086185-1.1043701-.0180588-1.7383728.6506176-.6339951.6686764-.6483994 1.6692638-.5574646 1.7701664.1057358.1173286 1.1042862.0180359 1.7382126-.6499748.6340027-.6686784.883522-1.4609032.5576248-1.7708092z"/><path d="m81.0865097 34.4509201c-.2716217-.357605-1.0867004-.1975899-1.8210907.3589668-.7343979.5565567-.9114838 1.5414543-.8381882 1.6558113.0852356.1329803 1.0866241.1975555 1.8208389-.3583603.7343903-.5565528 1.1095429-1.2975959.83844-1.6564178z"/><path d="m83.9819031 39.6746063c-.2169342-.3931847-1.0466003-.3529663-1.8538895.091301-.8072815.4442673-1.1252136 1.3931084-1.0692673 1.51688.0650635.1439247 1.0465317.3529243 1.8535461-.0907326.8072892-.4442672 1.2858582-1.1231269 1.0696107-1.5174484z"/><path d="m86.7434464 45.7320824c-.1586685-.4200935-.9855957-.4985619-1.8479691-.1739159s-1.3123245 1.2184753-1.2745895 1.3489571c.0438843.1517296.985527.4985085 1.8475494.174427.8623733-.3246422 1.4328384-.9283447 1.2750092-1.3494682z"/><path d="m87.8991165 52.9862671c.0193787-.4486465-.7100143-.8460693-1.6305695-.8868256-.9205627-.0407524-1.6858368.604023-1.7024689.7388306-.0193405.1567574.7099838.845993 1.6299896.8871269.9205552.0407562 1.6825029-.2898788 1.7030488-.7391319z"/><path d="m87.7513504 60.1408195c.1958389-.40411-.3159332-1.0583649-1.144722-1.4611092-.8287811-.4027443-1.7871017-.1146278-1.8558655.0025063-.0799637.1362114.3159332 1.0582848 1.1440582 1.4611588.8287888.4027405 1.6593781.4016533 1.8565293-.0025559z"/><path d="m85.5183258 65.9085999c.1958313-.4041138-.3159332-1.0583649-1.144722-1.461113-.8287811-.4027405-1.7871017-.114624-1.8558655.0025101-.0799713.1362076.3159332 1.0582809 1.1440582 1.4611588.8287812.4027404 1.6593781.4016494 1.8565293-.0025559z"/><path d="m75.0143585 62.4088707c.2766418-.3537292-.0856552-1.1011887-.8108826-1.6696434-.7252197-.5684547-1.7227402-.4888992-1.8146667-.3889008-.1068878.1162872.0856705 1.1011086.8102264 1.6695518.7252198.5684548 1.5373612.7425347 1.8153229.3889924z"/><path d="m62.831913 31.6657696c-.4430466-.0732536-.9254036.6029758-1.0767097 1.5119267-.1513023.9089546.3966331 1.7462997.5284576 1.7790451.1532898.0380745.9253273-.6029472 1.0769424-1.5113068.1513024-.9089547-.0851783-1.7051697-.5286903-1.779665z"/><path d="m40.1970482 25.388483c-.408741.1859818-.4325943 1.0162754-.0518799 1.8554077.3807144.8391304 1.302227 1.2292595 1.4299431 1.1830139.1485138-.0537758.4325447-1.0162086.0524178-1.8550224-.3807183-.8391304-1.0206643-1.3686103-1.430481-1.1833992z"/><path d="m34.0234184 27.8362255c-.3683929.2567997-.2417793 1.0777302.2843399 1.8342247.5261192.7564964 1.5029678.9736347 1.6202202.9050674.1363449-.0797329.2417412-1.0776539-.283741-1.8339424-.5261192-.7564964-1.2512321-1.1615848-1.6208191-.9053497z"/><path d="m29.4194603 32.6113777c-.1907291.4065437.3292351 1.054306 1.163023 1.4465828.8337879.3922806 1.7884045.0921288 1.8556919-.0258636.0782433-.137207-.3292274-1.0542221-1.1623631-1.44664-.8337879-.3922806-1.664299-.3807374-1.8563518.0259208z"/><path d="m25.4740028 38.2467041c-.190731.4065437.3292351 1.0543022 1.163023 1.4465828.833786.3922806 1.7884026.0921288 1.85569-.0258636.0782452-.137207-.3292274-1.0542259-1.1623611-1.4466438-.8337879-.3922768-1.6643009-.3807336-1.8563519.0259246z"/><path d="m23.8238335 44.3823318c-.0851078.4409218.5779457.9412384 1.4825134 1.1168633.9045677.175621 1.7563057-.3496628 1.7925739-.4805603.0421734-.1522141-.577919-.9411621-1.4818878-1.1170807-.9045658-.1756248-1.7068386.0394211-1.7931995.4807777z"/><path d="m22.9911003 51.7923851c-.0851078.4409256.5779457.9412422 1.4825134 1.1168633.9045677.1756248 1.7563057-.3496628 1.7925739-.4805603.0421734-.1522141-.577919-.9411621-1.4818878-1.1170807-.9045658-.1756211-1.7068386.039421-1.7931995.4807777z"/><path d="m24.0483818 62.2675095c.2305717.3853493 1.0583172.3161011 1.8495522-.1561623s1.0757465-1.4316559 1.0154934-1.5533943c-.0700626-.1415558-1.0582447-.3160591-1.8492279.1555862-.791235.4722634-1.2457448 1.1674652-1.0158177 1.5539704z"/><path d="m29.4397469 69.638649c.2305737.3853531 1.0583191.3161011 1.8495541-.1561584.791235-.4722672 1.0757465-1.4316635 1.0154934-1.5533981-.0700645-.1415558-1.0582447-.3160553-1.8492279.1555862-.7912351.4722671-1.2457448 1.1674652-1.0158196 1.5539703z"/><path d="m42.6112862 84.8563614c.408783.1858902 1.0503235-.3417282 1.4326782-1.1801147s.0708923-1.7893677-.0478897-1.8552551c-.1381264-.0766068-1.0502434.3417206-1.4327431 1.1794586-.3823547.8383788-.3609505 1.6687011.0479546 1.8559112z"/><path d="m47.6859741 70.8194809c.4087791.1858902 1.0503197-.3417282 1.4326744-1.1801147s.0708923-1.7893677-.0478897-1.8552475c-.1381264-.0766144-1.0502434.341713-1.4327431 1.179451-.3823547.8383865-.3609504 1.6687011.0479584 1.8559112z"/><path d="m47.951088 86.4894409c.4359322.1078033.9698792-.5284882 1.1920586-1.42276.2221756-.8942719-.2583466-1.7720413-.3871956-1.815033-.149826-.0499878-.9697952.5284653-1.1922379 1.4221191-.2221794.8942719-.0489197 1.7065965.3873749 1.8156739z"/><path d="m62.3499336 87.2755966c.4459877-.0524902.7218857-.8359604.6151772-1.7512207s-.8653679-1.5678024-1.0011024-1.562706c-.1578407.005928-.7218208.8359146-.6155739 1.7506943.1067085.9152527.5547256 1.6146622 1.0014991 1.5632324z"/><path d="m68.5161743 85.8082657c.4085999-.1862793.4318466-1.0165939.0505219-1.8554459s-1.3031235-1.2283096-1.4308014-1.1819763c-.1484756.0538864-.4318085 1.0165253-.0510635 1.8550644.3813247.8388519 1.0216598 1.3678665 1.431343 1.1823578z"/><path d="m71.2927551 81.378952c.4085999-.1862793.4318542-1.0165863.0505219-1.8554459-.3813248-.8388519-1.3031235-1.2283096-1.4308014-1.1819687-.1484756.0538864-.4318008 1.0165253-.0510635 1.8550568.3813247.8388596 1.0216598 1.3678666 1.431343 1.1823578z"/><path d="m63.3596611 69.2789078c.4086037-.1862793.4318542-1.0165939.0505257-1.8554459-.3813248-.8388519-1.3031197-1.2283096-1.4308014-1.1819763-.1484756.0538864-.4318047 1.0165253-.0510674 1.8550644.3813286.8388519 1.0216637 1.3678665 1.4313431 1.1823578z"/><path d="m55.1322517 87.298912c.4475555-.0367508.7508698-.8100281.6764603-1.7284775-.0744133-.9184494-.8096275-1.5973053-.9454575-1.5969849-.1579475.0003662-.7508049.8099823-.6768379 1.7279282.0744133.9184495.4975243 1.633194.9458351 1.5975342z"/><path d="m39.4392242 61.2510567c.2305717.3853493 1.0583191.3161011 1.8495522-.1561623.7912369-.4722633 1.0757484-1.4316559 1.0154953-1.5533905-.0700645-.1415596-1.0582466-.3160629-1.8492279.1555824-.7912369.4722634-1.2457466 1.1674652-1.0158196 1.5539704z"/><path d="m47.8729095 37.7598763c-.4453163.057888-.7117043.8446503-.5939178 1.7585487s.8842964 1.5572052 1.0199623 1.5504646c.157753-.007843.7116356-.8446007.5943184-1.7580223-.1177864-.9138985-.5742416-1.6078262-1.0203629-1.550991z"/></g></svg>